<svg id="Capa_1" enable-background="new 0 0 512 512" height="512" viewBox="0 0 512 512" width="512" xmlns="http://www.w3.org/2000/svg"><g><path d="m256 0c-141.491 0-256 114.497-256 256 0 141.491 114.497 256 256 256 141.491 0 256-114.497 256-256 0-141.491-114.497-256-256-256zm0 482c-124.617 0-226-101.383-226-226s101.383-226 226-226 226 101.383 226 226-101.383 226-226 226z"/><path d="m275.433 242.501c21.693-28.59 1.272-70.066-34.828-70.066-24.098 0-43.703 19.605-43.703 43.703 0 9.895 3.31 19.029 8.875 26.363-38.974 32.596-15.69 96.082 34.828 96.082 50.631 0 73.728-63.548 34.828-96.082zm-48.532-26.363c0-7.556 6.147-13.703 13.703-13.703s13.703 6.147 13.703 13.703c0 7.557-6.147 13.704-13.703 13.704s-13.703-6.148-13.703-13.704zm13.703 92.445c-13.438 0-24.371-10.933-24.371-24.371s10.933-24.37 24.371-24.37 24.371 10.933 24.371 24.37c.001 13.438-10.932 24.371-24.371 24.371z"/><path d="m141.05 173.417h-29.1c-8.284 0-15 6.716-15 15s6.716 15 15 15h14.1v121.148c0 8.284 6.716 15 15 15s15-6.716 15-15v-136.148c0-8.284-6.716-15-15-15z"/><path d="m400.05 207.413h-20v-19.979c0-8.284-6.716-15-15-15s-15 6.716-15 15v19.979h-20c-8.284 0-15 6.716-15 15s6.716 15 15 15h20v20.043c0 8.284 6.716 15 15 15s15-6.716 15-15v-20.043h20c8.284 0 15-6.716 15-15s-6.716-15-15-15z"/></g></svg>