<?xml version="1.0" encoding="iso-8859-1"?>
<!-- Generator: Adobe Illustrator 18.1.1, SVG Export Plug-In . SVG Version: 6.00 Build 0)  -->
<svg version="1.1" id="Capa_1" xmlns="http://www.w3.org/2000/svg" xmlns:xlink="http://www.w3.org/1999/xlink" x="0px" y="0px"
	 viewBox="0 0 277.392 277.392" style="enable-background:new 0 0 277.392 277.392;" xml:space="preserve">
<g>
	<g>
		<path style="fill:#010002;" d="M46.232,213.541h119.659c25.493,0,46.232-20.739,46.232-46.232v-10.106l51.339,51.345
			c1.561,1.561,3.65,2.388,5.771,2.388c1.05,0,2.116-0.201,3.122-0.62c3.051-1.262,5.037-4.237,5.037-7.539V72.011
			c0-3.302-1.985-6.277-5.037-7.539c-3.04-1.262-6.554-0.566-8.893,1.768l-51.377,51.383c-0.397-25.15-20.951-45.498-46.194-45.498
			H46.232C20.739,72.125,0,92.864,0,118.357v48.952C0,192.802,20.739,213.541,46.232,213.541z M261.075,91.711v91.371
			l-45.683-45.688L261.075,91.711z M16.317,118.357c0-16.497,13.424-29.915,29.915-29.915h119.659
			c16.491,0,29.915,13.418,29.915,29.915v18.466v1.148v29.338c0,16.497-13.424,29.915-29.915,29.915H46.232
			c-16.491,0-29.915-13.418-29.915-29.915V118.357z"/>
	</g>
</g>
<g>
</g>
<g>
</g>
<g>
</g>
<g>
</g>
<g>
</g>
<g>
</g>
<g>
</g>
<g>
</g>
<g>
</g>
<g>
</g>
<g>
</g>
<g>
</g>
<g>
</g>
<g>
</g>
<g>
</g>
</svg>
