<svg id="Capa_1" enable-background="new 0 0 512 512" height="512" viewBox="0 0 512 512" width="512" xmlns="http://www.w3.org/2000/svg"><g id="XMLID_852_"><g id="XMLID_724_"><path id="XMLID_1233_" d="m478 200h-86v-31.5c0-14.612-11.888-26.5-26.5-26.5h-13.417v-44h-.024c-.001-2.602-.993-5.159-2.905-7.071l-88-88c-1.809-1.81-4.309-2.929-7.071-2.929h-244.083c-5.523 0-10 4.478-10 10v438c0 5.522 4.477 10 10 10h90v20c0 18.748 15.252 34 34 34h127c5.523 0 10-4.478 10-10s-4.477-10-10-10h-127c-7.72 0-14-6.28-14-14v-146.677l144 41.878v9.799c0 23.159 18.841 42 42 42s42-18.841 42-42v-9.799l144-41.878v146.677c0 7.72-6.28 14-14 14h-127c-5.523 0-10 4.478-10 10s4.477 10 10 10h127c18.748 0 34-15.252 34-34v-244c0-18.748-15.252-34-34-34zm-106-31.5v31.5h-132v-31.5c0-3.584 2.916-6.5 6.5-6.5h119c3.584 0 6.5 2.916 6.5 6.5zm-107.917-134.357 53.858 53.857h-53.858zm-244.083 403.857v-418h224.083v78c0 5.522 4.477 10 10 10h78v34h-85.583c-14.612 0-26.5 11.888-26.5 26.5v31.5h-86c-18.748 0-34 15.252-34 34v204zm286-33c-12.131 0-22-9.869-22-22v-30h44v30c0 12.131-9.869 22-22 22zm32-72h-64c-5.523 0-10 4.478-10 10v9.371l-144-41.877v-76.494c0-7.72 6.28-14 14-14h344c7.72 0 14 6.28 14 14v76.494l-144 41.877v-9.371c0-5.522-4.477-10-10-10z"/><path id="XMLID_1240_" d="m190 154c0-5.522-4.477-10-10-10h-121.428c-5.523 0-10 4.478-10 10s4.477 10 10 10h121.428c5.523 0 10-4.478 10-10z"/><path id="XMLID_1241_" d="m58.572 108h121.428c5.523 0 10-4.478 10-10s-4.477-10-10-10h-121.428c-5.523 0-10 4.478-10 10s4.477 10 10 10z"/><path id="XMLID_1242_" d="m306 492c-2.63 0-5.21 1.069-7.07 2.93-1.86 1.86-2.93 4.44-2.93 7.07s1.07 5.21 2.93 7.069c1.86 1.86 4.44 2.931 7.07 2.931s5.21-1.07 7.07-2.931c1.86-1.859 2.93-4.439 2.93-7.069s-1.07-5.21-2.93-7.07-4.44-2.93-7.07-2.93z"/></g></g></svg>