<?xml version="1.0" encoding="iso-8859-1"?>
<!-- Generator: Adobe Illustrator 19.0.0, SVG Export Plug-In . SVG Version: 6.00 Build 0)  -->
<svg version="1.1" id="Layer_1" xmlns="http://www.w3.org/2000/svg" xmlns:xlink="http://www.w3.org/1999/xlink" x="0px" y="0px"
	 viewBox="0 0 511.985 511.985" style="enable-background:new 0 0 511.985 511.985;" xml:space="preserve">
<g>
	<g>
		<g>
			<path d="M222,3.277C153.477,16.59,99.111,72.751,87.702,141.764c-6.79,41.231,1.13,81.857,21.702,116.271
				c2.35,3.928,4.199,7.011,8.39,14l0.967,1.613c41.753,69.614,59.977,101.895,79.073,142.806l38.825,83.218
				c7.659,16.416,31.001,16.419,38.664,0.004l34.965-74.901c19.287-41.357,37.562-74.11,79.19-144.553l1.062-1.797
				c6.181-10.459,9.139-15.472,12.673-21.482c15.271-25.943,23.445-55.54,23.445-86.29C426.659,63.541,329.368-17.545,222,3.277z
				 M366.44,235.307c-3.518,5.984-6.466,10.977-12.631,21.41l-1.062,1.797c-42.326,71.624-61.063,105.204-81.123,148.219
				l-15.625,33.472l-19.5-41.795c-19.925-42.687-38.643-75.842-81.147-146.709l-0.967-1.613c-4.187-6.981-6.027-10.051-8.363-13.954
				c-15.428-25.808-21.358-56.232-16.222-87.425c8.504-51.443,49.357-93.645,100.331-103.549
				c80.922-15.693,153.862,45.096,153.862,125.49C383.993,193.74,377.88,215.872,366.44,235.307z"/>
			<path d="M255.993,106.652c-35.355,0-64,28.645-64,64s28.645,64,64,64s64-28.645,64-64S291.348,106.652,255.993,106.652z
				 M255.993,191.985c-11.791,0-21.333-9.542-21.333-21.333s9.542-21.333,21.333-21.333c11.791,0,21.333,9.542,21.333,21.333
				S267.784,191.985,255.993,191.985z"/>
		</g>
	</g>
</g>
<g>
</g>
<g>
</g>
<g>
</g>
<g>
</g>
<g>
</g>
<g>
</g>
<g>
</g>
<g>
</g>
<g>
</g>
<g>
</g>
<g>
</g>
<g>
</g>
<g>
</g>
<g>
</g>
<g>
</g>
</svg>
